<?xml version="1.0" encoding="utf-8"?>
<!-- Generator: Adobe Illustrator 17.0.0, SVG Export Plug-In . SVG Version: 6.00 Build 0)  -->
<!DOCTYPE svg PUBLIC "-//W3C//DTD SVG 1.1//EN" "http://www.w3.org/Graphics/SVG/1.1/DTD/svg11.dtd">
<svg version="1.1" id="Layer_1" xmlns="http://www.w3.org/2000/svg" xmlns:xlink="http://www.w3.org/1999/xlink" x="0px" y="0px"
	 width="100px" height="100px" viewBox="0 0 100 100" enable-background="new 0 0 100 100" xml:space="preserve">
<g id="Captions">
</g>
<g id="Your_Icon">
	<path fill="#FFFFFF" d="M65.068,83.25H33.754c-0.614,0-1.137-0.446-1.234-1.052l-8.463-52.793
		c-0.109-0.682,0.354-1.323,1.036-1.433c0.675-0.108,1.323,0.354,1.433,1.036l8.294,51.741h29.184l8.292-51.741
		c0.109-0.683,0.752-1.145,1.433-1.036c0.682,0.109,1.146,0.751,1.036,1.433l-8.461,52.793C66.205,82.804,65.683,83.25,65.068,83.25
		z"/>
	<path fill="#FFFFFF" d="M75.824,30.457H23c-0.69,0-1.25-0.56-1.25-1.25v-6.19c0-0.69,0.56-1.25,1.25-1.25h52.824
		c0.69,0,1.25,0.56,1.25,1.25v6.19C77.074,29.897,76.515,30.457,75.824,30.457z M24.25,27.957h50.324v-3.69H24.25V27.957z"/>
	<path fill="#FFFFFF" d="M51.482,24.267c-0.119,0-0.24-0.017-0.36-0.053c-0.661-0.199-1.036-0.896-0.837-1.558l3.67-12.178
		c0.199-0.661,0.896-1.035,1.558-0.837c0.661,0.199,1.036,0.896,0.837,1.558l-3.67,12.178C52.517,23.918,52.02,24.267,51.482,24.267
		z"/>
	<path fill="#FFFFFF" d="M49.41,66.024c-6.522,0-11.828-5.306-11.828-11.828c0-6.524,5.306-11.832,11.828-11.832
		c6.523,0,11.83,5.308,11.83,11.832C61.24,60.719,55.934,66.024,49.41,66.024z M49.41,44.864c-5.144,0-9.328,4.187-9.328,9.332
		c0,5.144,4.185,9.328,9.328,9.328c5.145,0,9.33-4.185,9.33-9.328C58.74,49.051,54.555,44.864,49.41,44.864z"/>
</g>
</svg>
