<?xml version="1.0" encoding="utf-8"?>
<!-- Generator: Adobe Illustrator 17.0.0, SVG Export Plug-In . SVG Version: 6.00 Build 0)  -->
<!DOCTYPE svg PUBLIC "-//W3C//DTD SVG 1.1//EN" "http://www.w3.org/Graphics/SVG/1.1/DTD/svg11.dtd">
<svg version="1.1" id="Layer_1" xmlns="http://www.w3.org/2000/svg" xmlns:xlink="http://www.w3.org/1999/xlink" x="0px" y="0px"
	 width="100px" height="100px" viewBox="0 0 100 100" enable-background="new 0 0 100 100" xml:space="preserve">
<path fill="#FFFFFF" d="M65.519,92.318c0,0,0-36.216,0-40.88c0-7.011-2.951-11.754-5.261-18.695c-2.314-6.941-4.682-17.67-4.608-23
	v-2.46c0.406-0.151,0.633-0.33,0.633-0.515V3.163c0-0.185-0.227-0.359-0.633-0.516V1.391c0-0.625-2.216-1.135-4.952-1.135
	s-4.957,0.509-4.957,1.135v1.256c-0.401,0.156-0.629,0.331-0.629,0.516v3.604c0,0.185,0.228,0.364,0.629,0.515v2.46
	c0.078,5.33-2.293,16.059-4.604,23c-2.309,6.941-5.26,11.685-5.26,18.695c0,4.664,0,40.88,0,40.88s-0.028,2.975,1.668,4.171
	c3.767,2.647,11.083,3.254,13.152,3.189c2.07,0.064,9.382-0.542,13.148-3.189C65.543,95.293,65.519,92.318,65.519,92.318z
	 M59.997,39.475c0.215,0,0.393,0.143,0.454,0.332l0,0c1.064,2.996,1.836,5.987,1.836,9.572c0,0.091,0,0.195,0,0.31
	c0,0.25-0.188,0.449-0.426,0.476v0.001c-0.643,0.086-1.328,0.166-2.063,0.235l0,0c-0.013,0-0.028,0.002-0.04,0.002
	c-0.264,0-0.479-0.215-0.479-0.481c0-0.753,0-1.333,0-1.713c0-3.006-0.479-5.594-1.2-8.121l0,0
	c-0.013-0.043-0.021-0.087-0.021-0.134c0-0.262,0.212-0.475,0.471-0.479l0.004-0.002h1.466v0.002H59.997z M57.144,35.181
	L57.144,35.181L57.144,35.181h1.263l0,0c0.197,0.004,0.369,0.128,0.438,0.305c0.003,0.002,0.007,0.002,0.007,0.005
	c0.195,0.492,0.386,0.975,0.573,1.456c0.024,0.061,0.041,0.128,0.041,0.197c0,0.264-0.212,0.475-0.476,0.479v0.004h-1.331v-0.004
	v0.004c-0.191,0-0.356-0.116-0.435-0.28c0,0-0.012-0.037-0.021-0.048c-0.162-0.479-0.333-0.96-0.503-1.446
	c-0.025-0.059-0.041-0.122-0.041-0.191C56.66,35.398,56.876,35.181,57.144,35.181z M63.074,92.561L63.074,92.561
	c-0.004,0.32-0.207,0.592-0.49,0.7c-2.152,0.945-5.29,1.628-8.899,1.871c-0.02,0-0.036,0.007-0.053,0.007
	c-0.419,0-0.76-0.337-0.76-0.756h0.005h-0.005V53.736c0-0.417,0.341-0.753,0.76-0.753c0.004,0,0.008,0,0.017,0
	c3.397-0.1,6.377-0.366,8.517-0.745c0.004,0,0.004,0,0.004,0c0.009,0,0.017-0.002,0.028-0.002h0.005
	c0.04-0.006,0.075-0.013,0.117-0.013c0.418,0,0.755,0.338,0.755,0.756L63.074,92.561L63.074,92.561z"/>
</svg>
